{"title":"Ride Along (2014) 1080p Dual Audio BDMV REMUX HDCLUB","uid":10472418,"size":28914294768,"categoryP":"video","categoryS":"hd___movies","magnet":"?xt=urn:btih:6da21cdc9d0e0d6507e64b75ec4f40954f93bb61&amp;dn=Ride+Along+%282014%29+1080p+Dual+Audio+BDMV+REMUX+HDCLUB&amp;tr=udp%3A%2F%2Ftracker.openbittorrent.com%3A80&amp;tr=udp%3A%2F%2Fopen.demonii.com%3A1337&amp;tr=udp%3A%2F%2Ftracker.coppersurfer.tk%3A6969&amp;tr=udp%3A%2F%2Fexodus.desync.com%3A6969","seeders":6,"leechers":0,"uploader":"darkj6","files":-1,"time":1404267672,"description":" ______   _______  ______    ___   _      ___  --------|\n|      | |   _   ||    _ |  |   | | |    |   ||   |----|    \n|  _    ||  |_|  ||   | ||  |   |_| |    |   ||   |___ \n| | |   ||       ||   |_||_ |      _|    |   ||    _  |\n| |_|   ||       ||    __  ||     |_  ___|   ||   | | |\n|       ||   _   ||   |  | ||    _  ||       ||   |_| |\n|______| |__| |__||___|  |_||___| |_||_______||_______|\n &lt;a href=&quot;\nhttp://www.imdb.com/title/tt1408253/&quot; rel=&quot;nofollow&quot; target=&quot;_NEW&quot;&gt;\nhttp://www.imdb.com/title/tt1408253/&lt;/a&gt;\n\nIssued : United States \n\nDuration : 1:39:32 \n\nFormat : BDMV \n\n\nSource : Ride.Along.2014.COMPLETE.BLURAY-LAZERS \n\n\nVideo : 1920x1080 at 23.976 fps, MPEG-4 AVC, ~ 32194 kbps avg \n\n\nAudio # 1 : Russian: 48 kHz, AC3, 3/2 (L, C, R, l, r) + LFE ch, ~ 384.00 kbps avg | Dubbing, iTunes Russia | \n\n\nAudio # 2 : English: 48 kHz/24-bit, DTS- HD MA 5.1, ~ 3710.00 kbps avg \n\n\nAudio # 3 : English: 48 kHz, AC3, 2/0 (L, R) ch, ~ 192.00 kbps avg | Feature Commentary with Director Tim Story | \n\n\nAudio # 4 : English: 48 kHz, AC3, 2/0 (L, R) ch, ~ 192.00 kbps avg | Deive | \n\n\nSubtitles : Russian (Forced, iTunes), Russian (iTunes), English (SDH)\n\n\n\n\n\n\nID number: 1 (0x1) \nFull name: ... RIDE_ALONG_REMUX_HDCLUBBDMVSTREAM0000.m2ts \nFormat: BDAV \nFormat / Info: Blu-ray Video \nFile Size: 26.9 GB \nDuration: 1 hour 39 m \nTotal bit rate mode: Variable \nOverall bit rate: 38.7 Mbit / s \nMaximum total bit rate: 35.5 Mbit / s \n\nvideo \nIdentifier: 4113 (0x1011) \nMenu ID: 1 (0x1) \nFormat: AVC \nFormat / Info: Advanced Video Codec \nFormat profile: &lt;a class=&quot;__cf_email__&quot; href=&quot;/cdn-cgi/l/email-protection&quot; data-cfemail=&quot;1b53727c735b572f352a&quot;&gt;[email&amp;#160;protected]&lt;/a&gt;&lt;script cf-hash='f9e31' type=&quot;text/javascript&quot;&gt;\n/* &lt;![CDATA[ */!function(){try{var t=&quot;currentScript&quot;in document?document.currentScript:function(){for(var t=document.getElementsByTagName(&quot;script&quot;),e=t.length;e--;)if(t[e].getAttribute(&quot;cf-hash&quot;))return t[e]}();if(t&amp;&amp;t.previousSibling){var e,r,n,i,c=t.previousSibling,a=c.getAttribute(&quot;data-cfemail&quot;);if(a){for(e=&quot;&quot;,r=parseInt(a.substr(0,2),16),n=2;a.length-n;n+=2)i=parseInt(a.substr(n,2),16)^r,e+=String.fromCharCode(i);e=document.createTextNode(e),c.parentNode.replaceChild(e,c)}}}catch(u){}}();/* ]]&gt; */&lt;/script&gt; \nParameter format CABAC: Yes \nParameter format ReFrames: 4 frames \nCodec ID: 27 \nDuration: 1 hour 39 m \nBit rate mode: Variable \nMaximum bit rate: 35.0 Mbit / s \nWidth: 1920 pixels \nHeight: 1080 \nAspect Ratio: 16:9 \nFrame rate: 23.976 frames / sec \nColor space: YUV \nSubsampling: 4:2:0 \nBit depth: 8 bits \nScan type: Progressive \n\nAudio # 1 \nIdentifier: 4352 (0x1100) \nMenu ID: 1 (0x1) \nFormat: AC-3 \nFormat / Info: Audio Coding 3 \nExpansion mode: CM (complete main) \nParameter format Endianness: Big \nCodec ID: 129 \nDuration: 1 hour 39 m \nBit rate mode: Constant \nBitrate: 384 kbit / s \nChannels: 6 channels \nPorting: Front: LCR, Side: LR, LFE \nSampling rate: 48.0 KHz \nBit Depth: 16-bit \nCompression mode: Lossy \nStream size: 274 MB (1%) \n\nAudio # 2 \nIdentifier: 4353 (0x1101) \nMenu ID: 1 (0x1) \nFormat: DTS \nFormat / Info: Digital Theater Systems \nFormat profile: MA / Core \nMode: 16 \nParameter format Endianness: Big \nBlending mode: Stream extension \nCodec ID: 134 \nDuration: 1 hour 39 m \nBit rate mode: Variable \nBitrate: Unknown / 1509 kbit / s \nChannels: 6 channels \nPorting: Front: LCR, Side: LR, LFE \nSampling rate: 48.0 KHz \nBit Depth: 24-bit \nCompression mode: Lossless / Lossy \n\nAudio # 3 \nIdentifier: 4354 (0x1102) \nMenu ID: 1 (0x1) \nFormat: AC-3 \nFormat / Info: Audio Coding 3 \nFormat profile: Dolby Digital \nExpansion mode: CM (complete main) \nParameter format Endianness: Big \nCodec ID: 129 \nDuration: 1 hour 39 m \nBit rate mode: Constant \nBitrate: 192 kbit / s \nChannels: 2 channels \nPorting: Front: LR \nSampling rate: 48.0 KHz \nBit Depth: 16-bit \nCompression mode: Lossy \nStream size: 137 MiB (0%) \n\nAudio # 4 \nIdentifier: 4355 (0x1103) \nMenu ID: 1 (0x1) \nFormat: AC-3 \nFormat / Info: Audio Coding 3 \nFormat profile: Dolby Digital \nExpansion mode: CM (complete main) \nParameter format Endianness: Big \nCodec ID: 129 \nDuration: 1 hour 39 m \nBit rate mode: Constant \nBitrate: 192 kbit / s \nChannels: 2 channels \nPorting: Front: LR \nSampling rate: 48.0 KHz \nBit Depth: 16-bit \nCompression mode: Lossy \nStream size: 137 MiB (0%) \n\nText # 1 \nIdentifier: 4608 (0x1200) \nMenu ID: 1 (0x1) \nFormat: PGS \nCodec ID: 144 \n\nText # 2 \nIdentifier: 4609 (0x1201) \nMenu ID: 1 (0x1) \nFormat: PGS \nCodec ID: 144 \n\nText # 3 \nIdentifier: 4610 (0x1202) \nMenu ID: 1 (0x1) \nFormat: PGS \nCodec ID: 144","torrent":{"xt":"urn:btih:6da21cdc9d0e0d6507e64b75ec4f40954f93bb61","amp;dn":"Ride+Along+%282014%29+1080p+Dual+Audio+BDMV+REMUX+HDCLUB","amp;tr":["udp%3A%2F%2Ftracker.openbittorrent.com%3A80","udp%3A%2F%2Fopen.demonii.com%3A1337","udp%3A%2F%2Ftracker.coppersurfer.tk%3A6969","udp%3A%2F%2Fexodus.desync.com%3A6969"],"infoHash":"6da21cdc9d0e0d6507e64b75ec4f40954f93bb61","infoHashBuffer":{"type":"Buffer","data":[109,162,28,220,157,14,13,101,7,230,75,117,236,79,64,149,79,147,187,97]},"announce":[],"urlList":[]}}